{"title":"Dark Places 2015 720p WEB-DL DD5.1 EN-SUB H.264-PLAYNOW","uid":12176734,"size":3665821696,"categoryP":"video","categoryS":"hd___movies","magnet":"?xt=urn:btih:89c4ce0999994efee4809534acfb3d5503e6152c&amp;dn=Dark+Places+2015+720p+WEB-DL+DD5.1+EN-SUB+H.264-PLAYNOW&amp;tr=udp%3A%2F%2Ftracker.openbittorrent.com%3A80&amp;tr=udp%3A%2F%2Fopen.demonii.com%3A1337&amp;tr=udp%3A%2F%2Ftracker.coppersurfer.tk%3A6969&amp;tr=udp%3A%2F%2Fexodus.desync.com%3A6969","seeders":4,"leechers":0,"uploader":"Mulva1989","files":1,"time":1438329275,"description":"Dark Places 2015 720p WEB-DL DD5.1 H.264-PLAYNOW\n\nStars: Charlize Theron, Sterling Jerins, Nicholas Hoult\n\nLibby Day was only seven years old when her family was brutally murdered in their rural Kansas farmhouse. Twenty-five years later, she agrees to revisit the crime and uncovers the wrenching truths that led up to that tragic night.\n\nSceens @ &lt;a href=&quot;\nhttps://yuq.me/users/50/321/eTKNLQmtzx.png&quot; rel=&quot;nofollow&quot; target=&quot;_NEW&quot;&gt;\nhttps://yuq.me/users/50/321/eTKNLQmtzx.png&lt;/a&gt; &lt;a href=&quot;\nhttps://yuq.me/users/50/321/6KJyjci3tO.png&quot; rel=&quot;nofollow&quot; target=&quot;_NEW&quot;&gt;\nhttps://yuq.me/users/50/321/6KJyjci3tO.png&lt;/a&gt; &lt;a href=&quot;\nhttps://yuq.me/users/50/321/w183JSrPep.jpg&quot; rel=&quot;nofollow&quot; target=&quot;_NEW&quot;&gt;\nhttps://yuq.me/users/50/321/w183JSrPep.jpg&lt;/a&gt;\n\nFormat : Matroska\nFormat version : Version 4 / Version 2\nFile size : 3.41 GiB\nDuration : 1h 53mn\nOverall bit rate : 4 321 Kbps\nEncoded date : UTC 2015-07-31 04:37:26\nWriting application : mkvmerge v7.0.0 ('Where We Going') 64bit built on Jun 9 2014 15:16:27\nWriting library : libebml v1.3.0 + libmatroska v1.4.1\n\nVideo\nID : 2\nFormat : AVC\nFormat/Info : Advanced Video Codec\nFormat profile : &lt;a class=&quot;__cf_email__&quot; href=&quot;/cdn-cgi/l/email-protection&quot; data-cfemail=&quot;165b777f78565a253827&quot;&gt;[email&amp;#160;protected]&lt;/a&gt;&lt;script data-cfhash='f9e31' type=&quot;text/javascript&quot;&gt;\n/* &lt;![CDATA[ */!function(){try{var t=&quot;currentScript&quot;in document?document.currentScript:function(){for(var t=document.getElementsByTagName(&quot;script&quot;),e=t.length;e--;)if(t[e].getAttribute(&quot;data-cfhash&quot;))return t[e]}();if(t&amp;&amp;t.previousSibling){var e,r,n,i,c=t.previousSibling,a=c.getAttribute(&quot;data-cfemail&quot;);if(a){for(e=&quot;&quot;,r=parseInt(a.substr(0,2),16),n=2;a.length-n;n+=2)i=parseInt(a.substr(n,2),16)^r,e+=String.fromCharCode(i);e=document.createTextNode(e),c.parentNode.replaceChild(e,c)}t.parentNode.removeChild(t);}}catch(u){}}()/* ]]&gt; */&lt;/script&gt;\nFormat settings, CABAC : No\nFormat settings, ReFrames : 2 frames\nCodec ID : V_MPEG4/ISO/AVC\nDuration : 1h 53mn\nBit rate : 3 851 Kbps\nWidth : 1 280 pixels\nHeight : 528 pixels\nDisplay aspect ratio : 2.40:1\nFrame rate mode : Constant\nFrame rate : 23.976 fps\nColor space : YUV\nChroma subsampling : 4:2:0\nBit depth : 8 bits\nScan type : Progressive\nBits/(Pixel*Frame) : 0.238\nStream size : 3.04 GiB (89%)\nLanguage : English\nDefault : Yes\nForced : No\nColor primaries : BT.709\nTransfer characteristics : BT.709\nMatrix coefficients : BT.709\nColor range : Limited\n\nAudio\nID : 1\nFormat : AC-3\nFormat/Info : Audio Coding 3\nMode extension : CM (complete main)\nFormat settings, Endianness : Big\nCodec ID : A_AC3\nDuration : 1h 53mn\nBit rate mode : Constant\nBit rate : 384 Kbps\nChannel(s) : 6 channels\nChannel positions : Front: L C R, Side: L R, LFE\nSampling rate : 48.0 KHz\nBit depth : 16 bits\nCompression mode : Lossy\nStream size : 311 MiB (9%)\nLanguage : English\nDefault : Yes\nForced : No\n\nText\nID : 3\nFormat : UTF-8\nCodec ID : S_TEXT/UTF8\nCodec ID/Info : UTF-8 Plain Text\nLanguage : English\nDefault : No\nForced : No\n\nMenu\n00:00:00.000 : en:1\n00:18:22.000 : en:2\n00:30:49.000 : en:3\n00:46:45.000 : en:4\n01:01:47.000 : en:5\n01:20:52.000 : en:6\n01:33:12.000 : en:7\n01:46:42.000 : en:8","torrent":{"xt":"urn:btih:89c4ce0999994efee4809534acfb3d5503e6152c","amp;dn":"Dark+Places+2015+720p+WEB-DL+DD5.1+EN-SUB+H.264-PLAYNOW","amp;tr":["udp%3A%2F%2Ftracker.openbittorrent.com%3A80","udp%3A%2F%2Fopen.demonii.com%3A1337","udp%3A%2F%2Ftracker.coppersurfer.tk%3A6969","udp%3A%2F%2Fexodus.desync.com%3A6969"],"infoHash":"89c4ce0999994efee4809534acfb3d5503e6152c","infoHashBuffer":{"type":"Buffer","data":[137,196,206,9,153,153,78,254,228,128,149,52,172,251,61,85,3,230,21,44]},"announce":[],"urlList":[]}}